<svg width="52" height="52" viewBox="0 0 52 52" fill="none" xmlns="http://www.w3.org/2000/svg">
    <path fill-rule="evenodd" clip-rule="evenodd" d="M26 50C39.2548 50 50 39.2548 50 26C50 12.7452 39.2548 2 26 2C12.7452 2 2 12.7452 2 26C2 39.2548 12.7452 50 26 50Z" fill="#4731B4" stroke="white" stroke-width="3"/>
    <path fill-rule="evenodd" clip-rule="evenodd" d="M29.9982 16.9998C29.9982 18.6566 28.6553 19.9995 26.9984 19.9995C25.3415 19.9995 23.9987 18.6566 23.9987 16.9998C23.9987 15.3429 25.3415 14 26.9984 14C28.6553 14 29.9982 15.3429 29.9982 16.9998ZM31.996 25.75L32.9719 26.076C33.7578 26.338 34.1828 27.1869 33.9208 27.9748C33.7108 28.6038 33.1259 29.0007 32.4979 29.0007C32.341 29.0007 32.181 28.9758 32.024 28.9228L30.0002 28.2488L28.8822 26.401L28.2623 29.5907L30.9981 31.7795V36.5001C30.9981 37.3291 30.3271 38 29.4982 38C28.6693 38 27.9983 37.3291 27.9983 36.5001V33.2214L24.9196 30.7586L23.4577 36.8501C23.2927 37.538 22.6778 38 22.0008 38C21.8838 38 21.7668 37.986 21.6488 37.958C20.8439 37.764 20.348 36.9551 20.5409 36.1492L23.2277 24.9531L21.3259 26.38L20.9549 27.8628C20.7529 28.6658 19.939 29.1547 19.1361 28.9538C18.3331 28.7528 17.8442 27.9388 18.0451 27.1349L18.6741 24.6181L21.8198 22.2583C22.9027 21.4454 24.2456 20.9984 25.5995 20.9984C27.5724 20.9984 29.4552 21.9403 30.6391 23.5182L30.7221 23.6422L31.996 25.75Z" fill="black"/>
    <mask id="mask0_1827_4354" style="mask-type:alpha" maskUnits="userSpaceOnUse" x="18" y="14" width="16" height="24">
        <path fill-rule="evenodd" clip-rule="evenodd" d="M29.9982 16.9998C29.9982 18.6566 28.6553 19.9995 26.9984 19.9995C25.3415 19.9995 23.9987 18.6566 23.9987 16.9998C23.9987 15.3429 25.3415 14 26.9984 14C28.6553 14 29.9982 15.3429 29.9982 16.9998ZM31.996 25.75L32.9719 26.076C33.7578 26.338 34.1828 27.1869 33.9208 27.9748C33.7108 28.6038 33.1259 29.0007 32.4979 29.0007C32.341 29.0007 32.181 28.9758 32.024 28.9228L30.0002 28.2488L28.8822 26.401L28.2623 29.5907L30.9981 31.7795V36.5001C30.9981 37.3291 30.3271 38 29.4982 38C28.6693 38 27.9983 37.3291 27.9983 36.5001V33.2214L24.9196 30.7586L23.4577 36.8501C23.2927 37.538 22.6778 38 22.0008 38C21.8838 38 21.7668 37.986 21.6488 37.958C20.8439 37.764 20.348 36.9551 20.5409 36.1492L23.2277 24.9531L21.3259 26.38L20.9549 27.8628C20.7529 28.6658 19.939 29.1547 19.1361 28.9538C18.3331 28.7528 17.8442 27.9388 18.0451 27.1349L18.6741 24.6181L21.8198 22.2583C22.9027 21.4454 24.2456 20.9984 25.5995 20.9984C27.5724 20.9984 29.4552 21.9403 30.6391 23.5182L30.7221 23.6422L31.996 25.75Z" fill="white"/>
    </mask>
    <g mask="url(#mask0_1827_4354)">
        <rect x="14" y="14" width="24" height="24" fill="white"/>
    </g>
</svg>
