<svg width="52" height="52" viewBox="0 0 52 52" fill="none" xmlns="http://www.w3.org/2000/svg">
    <path fill-rule="evenodd" clip-rule="evenodd" d="M26 50C39.2548 50 50 39.2548 50 26C50 12.7452 39.2548 2 26 2C12.7452 2 2 12.7452 2 26C2 39.2548 12.7452 50 26 50Z" fill="#A88F46" stroke="white" stroke-width="3"/>
    <path d="M34.3187 18.8024H27.9259V18.3221C27.9666 17.5722 27.3962 16.9294 26.6474 16.8811H19.8273C19.7151 16.8833 19.6039 16.9023 19.4973 16.9374V16.1606C19.4993 15.9072 19.4004 15.6634 19.2224 15.4831C19.0444 15.3028 18.802 15.2009 18.5487 15.2C18.2955 15.2009 18.0531 15.3028 17.8751 15.4831C17.6971 15.6634 17.5981 15.9072 17.6001 16.1606V36.2393C17.5981 36.4927 17.6971 36.7365 17.8751 36.9168C18.0531 37.0971 18.2955 37.199 18.5487 37.2C18.802 37.199 19.0444 37.0971 19.2224 36.9168C19.4004 36.7365 19.4993 36.4927 19.4973 36.2393V27.4091H26.2237V27.8894C26.1831 28.6393 26.7534 29.2821 27.5023 29.3304H34.3187C35.0675 29.2821 35.6378 28.6393 35.5972 27.8894V20.2584C35.6208 19.8956 35.4993 19.5383 35.2595 19.2652C35.0197 18.992 34.6812 18.8256 34.3187 18.8024Z" fill="white"/>
</svg>
