<svg width="52" height="52" viewBox="0 0 52 52" fill="none" xmlns="http://www.w3.org/2000/svg">
    <path fill-rule="evenodd" clip-rule="evenodd" d="M26 50C39.2548 50 50 39.2548 50 26C50 12.7452 39.2548 2 26 2C12.7452 2 2 12.7452 2 26C2 39.2548 12.7452 50 26 50Z" fill="url(#paint0_linear_1827_4260)" stroke="white" stroke-width="3"/>
    <path d="M33.7306 24.9509C34.2579 24.4049 33.9666 23.4535 33.2372 23.3415L28.8056 22.6601C28.7936 22.6581 28.7836 22.6501 28.7776 22.6388L26.8935 18.5912C26.5261 17.8025 25.4661 17.8032 25.1 18.5919L23.2199 22.6408C23.2146 22.6521 23.2046 22.6601 23.1926 22.6621L18.7616 23.3475C18.0323 23.4602 17.7416 24.4116 18.2696 24.9569L21.4778 28.2731C21.4865 28.2818 21.4905 28.2951 21.4885 28.3078L20.7718 32.7574C20.6318 33.6248 21.4898 34.2855 22.2232 33.8755L25.9868 31.7727C25.9974 31.7667 26.0101 31.7667 26.0208 31.7727L29.7863 33.8715C30.5204 34.2809 31.3771 33.6188 31.2371 32.7521L30.5157 28.3031C30.5137 28.2905 30.5177 28.2778 30.5264 28.2685L33.7306 24.9509Z" fill="white"/>
    <defs>
        <linearGradient id="paint0_linear_1827_4260" x1="2.96524" y1="3.19579" x2="2.96524" y2="49.2653" gradientUnits="userSpaceOnUse">
            <stop stop-color="#FFC72F"/>
            <stop offset="1" stop-color="#FEA932"/>
        </linearGradient>
    </defs>
</svg>
